<?xml version="1.0" encoding="utf-8"?>
<svg xmlns="http://www.w3.org/2000/svg" viewBox="0 0 50 50" width="48" height="48">
  <path d="M24.970703 1.9375 A 2.0002 2.0002 0 0 0 23 3.9667969L23 29.138672L19.414062 25.552734 A 2.0002 2.0002 0 0 0 17.978516 24.945312 A 2.0002 2.0002 0 0 0 16.585938 28.380859L23.585938 35.380859 A 2.0002 2.0002 0 0 0 26.414062 35.380859L33.414062 28.380859 A 2.0002 2.0002 0 1 0 30.585938 25.552734L27 29.138672L27 3.9667969 A 2.0002 2.0002 0 0 0 24.970703 1.9375 z M 16.955078 3.5859375 A 2.0002 2.0002 0 0 0 16.236328 3.7480469C7.8818564 7.1967588 2 15.420226 2 25C2 37.678876 12.321124 48 25 48C37.678876 48 48 37.678876 48 25C48 15.420226 42.118144 7.1967588 33.763672 3.7480469 A 2.0002 2.0002 0 1 0 32.236328 7.4453125C39.133856 10.292601 44 17.055774 44 25C44 35.517124 35.517124 44 25 44C14.482876 44 6 35.517124 6 25C6 17.055774 10.866144 10.292601 17.763672 7.4453125 A 2.0002 2.0002 0 0 0 16.955078 3.5859375 z" fill="#FFFFFF" />
</svg>