<?xml version="1.0" encoding="utf-8"?>
<svg xmlns="http://www.w3.org/2000/svg" viewBox="0 0 50 50" width="500" height="500">
  <path d="M25 1.9648438C12.321124 1.9648438 2 12.285968 2 24.964844C2 34.544617 7.8818564 42.768085 16.236328 46.216797 A 2.0002 2.0002 0 1 0 17.763672 42.519531C10.866144 39.672243 6 32.90907 6 24.964844C6 14.44772 14.482876 5.9648436 25 5.9648438C35.517124 5.9648438 44 14.44772 44 24.964844C44 32.910163 39.133994 39.672186 32.236328 42.519531 A 2.0002 2.0002 0 1 0 33.763672 46.216797C42.118006 42.768142 48 34.545524 48 24.964844C48 12.285968 37.678876 1.9648437 25 1.9648438 z M 24.970703 14 A 2.0002 2.0002 0 0 0 23.585938 14.585938L16.585938 21.585938 A 2.0002 2.0002 0 1 0 19.414062 24.414062L23 20.828125L23 46 A 2.0002 2.0002 0 1 0 27 46L27 20.828125L30.585938 24.414062 A 2.0002 2.0002 0 1 0 33.414062 21.585938L26.414062 14.585938 A 2.0002 2.0002 0 0 0 24.970703 14 z" fill="#FFFFFF" />
</svg>